<svg id="Capa_1" enable-background="new 0 0 512 512" height="512" viewBox="0 0 512 512" width="512" xmlns="http://www.w3.org/2000/svg"><g><g><path d="m82.298 93.108h347.404v207.012h-347.404z" fill="#365e7d"/><path d="m82.298 93.108v207.012h347.404v-207.012zm316.128 165.805h-284.852c-5.894 0-10.673-4.778-10.673-10.673v-103.252c0-5.894 4.778-10.673 10.673-10.673h284.851c5.894 0 10.673 4.778 10.673 10.673v103.252c0 5.894-4.778 10.673-10.672 10.673z" fill="#2b4d66"/></g><path d="m450.606 113.712h-389.212c-2.035 0-3.685-1.65-3.685-3.685v-47.48c0-34.544 28.003-62.547 62.548-62.547h271.487c34.544 0 62.547 28.003 62.547 62.547v47.479c0 2.036-1.65 3.686-3.685 3.686z" fill="#aa7a63"/><path d="m391.744 0h-271.487c-3.846 0-7.604.365-11.258 1.03h249.81c34.544 0 62.547 28.003 62.547 62.547v50.134h29.25c2.035 0 3.685-1.65 3.685-3.685v-47.479c0-34.544-28.003-62.547-62.547-62.547z" fill="#986b54"/><g><path d="m449.14 49.686h-385.25c-4.267 0-7.726-3.459-7.726-7.726s3.459-7.726 7.726-7.726h385.25c4.268 0 7.726 3.459 7.726 7.726s-3.458 7.726-7.726 7.726z" fill="#f6e266"/></g><path d="m292.026 113.712h-72.052v-22.016c0-4.728 3.833-8.562 8.562-8.562h54.929c4.728 0 8.562 3.833 8.562 8.562v22.016z" fill="#ecf4ff"/><path d="m283.465 83.135h-20.071c4.728 0 8.562 3.833 8.562 8.562v22.015h20.071v-22.016c-.001-4.728-3.834-8.561-8.562-8.561z" fill="#ddeafb"/><g><path d="m256.645 279.516h-75.055c-4.798 0-8.687-3.889-8.687-8.687v-15.746c0-4.798 3.889-8.687 8.687-8.687h75.054c4.798 0 8.687 3.889 8.687 8.687v15.746c0 4.798-3.889 8.687-8.686 8.687z" fill="#eab14d"/><path d="m256.645 246.397h-20.715c4.798 0 8.687 3.889 8.687 8.687v15.746c0 4.798-3.889 8.687-8.687 8.687h20.715c4.798 0 8.687-3.889 8.687-8.687v-15.746c0-4.798-3.89-8.687-8.687-8.687z" fill="#e49542"/></g><g><path d="m256.645 246.397h-75.055c-4.798 0-8.687-3.889-8.687-8.687v-15.746c0-4.798 3.889-8.687 8.687-8.687h75.054c4.798 0 8.687 3.889 8.687 8.687v15.746c0 4.798-3.889 8.687-8.686 8.687z" fill="#f6e266"/><path d="m256.645 213.278h-20.715c4.798 0 8.687 3.889 8.687 8.687v15.746c0 4.798-3.889 8.687-8.687 8.687h20.715c4.798 0 8.687-3.889 8.687-8.687v-15.746c0-4.798-3.89-8.687-8.687-8.687z" fill="#ecbe6b"/></g><g><path d="m256.645 213.278h-75.055c-4.798 0-8.687-3.889-8.687-8.687v-15.746c0-4.798 3.889-8.687 8.687-8.687h75.054c4.798 0 8.687 3.889 8.687 8.687v15.746c0 4.798-3.889 8.687-8.686 8.687z" fill="#eab14d"/><path d="m256.645 180.159h-20.715c4.798 0 8.687 3.889 8.687 8.687v15.746c0 4.798-3.889 8.687-8.687 8.687h20.715c4.798 0 8.687-3.889 8.687-8.687v-15.746c0-4.798-3.89-8.687-8.687-8.687z" fill="#e49542"/></g><g><path d="m379.817 279.516h-75.054c-4.798 0-8.687-3.889-8.687-8.687v-15.746c0-4.798 3.889-8.687 8.687-8.687h75.054c4.798 0 8.687 3.889 8.687 8.687v15.746c0 4.798-3.889 8.687-8.687 8.687z" fill="#eab14d"/><path d="m379.817 246.397h-20.715c4.798 0 8.687 3.889 8.687 8.687v15.746c0 4.798-3.889 8.687-8.687 8.687h20.715c4.798 0 8.687-3.889 8.687-8.687v-15.746c0-4.798-3.889-8.687-8.687-8.687z" fill="#e49542"/></g><g><path d="m393.209 246.397h-75.054c-4.798 0-8.687-3.889-8.687-8.687v-15.746c0-4.798 3.889-8.687 8.687-8.687h75.054c4.798 0 8.687 3.889 8.687 8.687v15.746c0 4.798-3.889 8.687-8.687 8.687z" fill="#f6e266"/><path d="m393.209 213.278h-20.715c4.798 0 8.687 3.889 8.687 8.687v15.746c0 4.798-3.889 8.687-8.687 8.687h20.715c4.798 0 8.687-3.889 8.687-8.687v-15.746c0-4.798-3.889-8.687-8.687-8.687z" fill="#ecbe6b"/></g><path d="m379.817 213.278h-75.054c-4.798 0-8.687-3.889-8.687-8.687v-15.746c0-4.798 3.889-8.687 8.687-8.687h75.054c4.798 0 8.687 3.889 8.687 8.687v15.746c0 4.798-3.889 8.687-8.687 8.687z" fill="#eab14d"/><path d="m379.817 180.159h-20.715c4.798 0 8.687 3.889 8.687 8.687v15.746c0 4.798-3.889 8.687-8.687 8.687h20.715c4.798 0 8.687-3.889 8.687-8.687v-15.746c0-4.798-3.889-8.687-8.687-8.687z" fill="#e49542"/><g><path d="m236.041 180.159h-75.054c-4.798 0-8.687-3.889-8.687-8.687v-15.746c0-4.798 3.889-8.687 8.687-8.687h75.054c4.798 0 8.687 3.889 8.687 8.687v15.746c0 4.798-3.889 8.687-8.687 8.687z" fill="#f6e266"/><path d="m236.041 147.04h-20.715c4.798 0 8.687 3.889 8.687 8.687v15.746c0 4.798-3.889 8.687-8.687 8.687h20.715c4.798 0 8.687-3.889 8.687-8.687v-15.746c0-4.798-3.889-8.687-8.687-8.687z" fill="#ecbe6b"/></g><g><circle cx="153.489" cy="251.879" fill="#f6e266" r="44.913"/><path d="m153.489 206.966c-4.018 0-7.909.535-11.615 1.525 19.173 5.12 33.298 22.601 33.298 43.389 0 20.787-14.125 38.268-33.298 43.388 3.706.99 7.597 1.525 11.615 1.525 24.805 0 44.913-20.109 44.913-44.913 0-24.806-20.108-44.914-44.913-44.914z" fill="#ecbe6b"/></g><path d="m461.444 486.403c0 14.137-11.46 25.597-25.597 25.597h-359.694c-14.137 0-25.597-11.46-25.597-25.597v-203.201c0-2.035 1.65-3.685 3.685-3.685h403.516c2.035 0 3.685 1.65 3.685 3.685v203.201z" fill="#aa7a63"/><path d="m425.418 279.516v206.887c0 14.137-11.46 25.597-25.597 25.597h36.026c14.137 0 25.597-11.46 25.597-25.597v-203.201c0-2.035-1.65-3.685-3.685-3.685h-32.341z" fill="#986b54"/><path d="m280.148 341.364h-48.296c-6.56 0-11.878-5.318-11.878-11.878v-49.969h72.052v49.969c0 6.56-5.318 11.878-11.878 11.878z" fill="#ecf4ff"/><path d="m271.956 279.516v49.969c0 6.56-5.318 11.878-11.878 11.878h20.071c6.56 0 11.878-5.318 11.878-11.878v-49.969z" fill="#ddeafb"/><path d="m424.515 418.862c.484-.007.872-.401.872-.885v-101.519c0-.489-.396-.886-.886-.886h-95.534c-.489 0-.886.396-.886.886v13.027c0 26.432-21.503 47.935-47.935 47.935h-48.295c-26.431 0-47.935-21.503-47.935-47.935v-13.912h-96.418c-.489 0-.886.396-.886.886v101.518c0 .484.388.878.872.885 30.837.462 55.748 25.373 56.21 56.21.007.484.401.872.885.872h222.84c.484 0 .878-.388.885-.872.463-30.837 25.374-55.748 56.211-56.21z" fill="#f6e266"/><g><path d="m399.414 315.573v70.449c0 16.229-9.182 31.263-23.915 38.069-19.584 9.047-33.174 28.863-33.174 51.853h25.094c.484 0 .878-.388.885-.872.462-30.837 25.373-55.748 56.21-56.21.484-.007.872-.401.872-.885v-101.519c0-.489-.396-.886-.886-.886h-25.086z" fill="#ecbe6b"/></g><g><g><path d="m101.155 470.086c-4.267 0-7.726-3.459-7.726-7.726v-2.682c0-4.268 3.459-7.726 7.726-7.726s7.726 3.459 7.726 7.726v2.682c0 4.267-3.459 7.726-7.726 7.726z" fill="#ecf4ff"/></g><g><path d="m410.845 470.086c-4.268 0-7.726-3.459-7.726-7.726v-2.682c0-4.268 3.459-7.726 7.726-7.726s7.726 3.459 7.726 7.726v2.682c0 4.267-3.459 7.726-7.726 7.726z" fill="#ecf4ff"/></g></g><g><path d="m321.018 441.681h-130.036c-4.267 0-7.726-3.459-7.726-7.726s3.459-7.726 7.726-7.726h130.036c4.268 0 7.726 3.459 7.726 7.726s-3.459 7.726-7.726 7.726z" fill="#ecbe6b"/></g></g></svg>